<?xml version="1.0" encoding="utf-8"?>
<!-- Svg Vector Icons : http://www.onlinewebfonts.com/icon -->
<!DOCTYPE svg PUBLIC "-//W3C//DTD SVG 1.1//EN" "http://www.w3.org/Graphics/SVG/1.1/DTD/svg11.dtd">
<svg version="1.1" xmlns="http://www.w3.org/2000/svg" xmlns:xlink="http://www.w3.org/1999/xlink" x="0px" y="0px" viewBox="0 0 1000 1000" enable-background="new 0 0 1000 1000" xml:space="preserve">
<metadata> Svg Vector Icons : http://www.onlinewebfonts.com/icon </metadata>
<g><g transform="translate(0.000000,511.000000) scale(0.100000,-0.100000)"><path d="M2745.3,5059.7c-652.5-114.3-1224-415.6-1710.3-899.8c-461.3-463.4-748.1-987.1-885.2-1618.8c-62.3-286.8-66.5-904-10.4-1188.6C284.9,635.6,636.1,26.7,1184.6-463.7c403.2-359.5,937.2-627.6,1483.7-743.9c251.4-54,953.8-54,1205.3,0c434.3,93.5,926.8,309.6,1257.2,554.8l166.2,122.6l768.9-768.9l768.9-766.8l-218.2-218.2l-218.2-218.2L7589.2-3693l1188.6-1188.7l561.1,561.1l561.1,561.1L8711.3-2570.8L7520.6-1380.1l-218.2-218.2l-218.2-218.2l-762.7,764.7l-762.6,762.6l124.7,145.5c444.7,515.3,714.9,1165.8,764.7,1828.7c43.6,579.8-76.9,1161.6-342.9,1670.8c-490.4,943.4-1394.4,1585.6-2425.1,1724.8C3431,5115.9,3002.9,5105.5,2745.3,5059.7z M3530.8,4750.1c889.4-83.1,1650-534.1,2119.6-1257.2c203.6-311.7,326.3-608.9,409.4-993.3c64.4-303.4,64.4-847.8,0-1151.2c-133-619.3-426-1134.6-866.6-1529.4c-409.4-365.8-806.3-567.3-1346.6-683.7c-305.5-64.4-847.9-64.4-1157.5,2.1C1820.5-677.7,1124.4-141.6,729.6,646c-195.3,390.7-288.9,804.2-288.9,1278c0,800,293,1498.3,854.1,2042.7c521.6,505,1147.1,762.6,1945.1,802.1C3275.2,4768.8,3406.1,4760.5,3530.8,4750.1z M9110.3-4071.2c-166.3-166.2-309.6-301.3-322.1-301.3s-442.6,419.8-955.9,935.1l-935.1,935.1l311.7,311.7l311.7,311.7l945.5-945.5l945.5-945.5L9110.3-4071.2z"/><path d="M3217,4209.8c-114.3-45.7-783.4-912.3-1145-1483.7c-212-334.6-405.2-716.9-486.3-964.2c-60.2-178.7-68.6-226.5-66.5-430.2c2.1-282.6,49.9-478,182.9-733.5c182.9-355.3,455.1-621.3,810.4-793.8c241-116.4,407.3-162.1,667-178.7c985-68.6,1899.3,806.3,1851.6,1768.4c-12.5,253.5-68.6,432.2-253.5,802.1c-226.5,457.2-598.5,1007.9-1115.9,1658.3c-174.6,218.2-276.4,328.3-322.1,347c-37.4,16.6-70.7,29.1-72.7,27C3262.7,4228.5,3241.9,4220.2,3217,4209.8z M3462.2,3551.1c610.9-771,1022.4-1425.5,1172-1866.1c162.1-469.6-22.8-1057.7-438.5-1402.7C4054.5,165.9,3790.5,39.2,3613.9,1.8c-79-16.6-232.7-31.2-338.7-31.2c-411.5,0-739.8,130.9-1012,405.2c-178.7,178.7-266,320-347,561.1c-39.5,120.5-47.8,189.1-47.8,394.8c0,245.2,2.1,253.5,89.4,465.5c139.2,342.9,376.1,739.8,731.5,1230.2c201.6,278.5,565.2,743.9,583.9,746C3279.3,3773.4,3364.5,3673.7,3462.2,3551.1z"/><path d="M3873.7,1346.3c-37.4-29.1-52-70.7-64.4-176.6c-35.3-295.1-189.1-448.9-490.4-492.5c-162.1-22.9-214-66.5-214-176.6c0-51.9,16.6-83.1,66.5-124.7c60.3-49.9,76.9-54,170.4-41.6c409.4,54,729.4,351.2,800,750.2c27,145.5,10.4,214-64.4,266C4015,1394.1,3929.8,1392,3873.7,1346.3z"/></g></g>
</svg>