<?xml version="1.0" encoding="utf-8"?>
<!-- Generator: Adobe Illustrator 24.2.3, SVG Export Plug-In . SVG Version: 6.00 Build 0)  -->
<svg version="1.1" id="Layer_1" xmlns="http://www.w3.org/2000/svg" xmlns:xlink="http://www.w3.org/1999/xlink" x="0px" y="0px"
	 viewBox="0 0 530.04 520.09" style="enable-background:new 0 0 530.04 520.09;" xml:space="preserve">
<style type="text/css">
	.st0{fill:#FEFEFE;}
	.st1{fill:#AA1111;}
	.st2{fill:none;stroke:#AE0500;stroke-width:5;}
	.st3{fill:none;stroke:#AE0500;stroke-width:11;}
</style>
<g>
	<g>
		<path class="st0" d="M243.71,503.01c-76.16,0-152.32,0-228.52,0c0-165.63,0-331.25,0-497c166.64,0,333.32,0,500,0
			c0,79.79,0,159.62,0,239.45c-2.33-7.5-2.53-15.36-4.03-23.02c-6.51-33.3-16.25-65.43-33.13-95.12
			c-21.77-38.27-52.28-67.43-91.36-87.59c-23.54-12.14-48.49-20.41-74.39-25.71c-18.93-3.87-37.86-6.95-57.48-5.34
			c-24.17,1.98-47.59,6.87-70.53,14.35C125.2,42.32,79.73,78.69,49.42,132.97c-24.65,44.16-35.19,91.76-31.34,142.46
			c1.78,23.53,6.41,46.32,14.55,68.42c11.03,29.94,27.45,56.63,49.06,80.06c13.97,15.15,29.8,28.17,47.17,39.3
			c29.66,19.01,61.88,31.22,96.66,36.88C231.58,501.08,237.86,500.77,243.71,503.01z"/>
		<path class="st1" d="M243.71,503.01c-5.85-2.24-12.13-1.93-18.19-2.92c-34.78-5.66-67-17.86-96.66-36.88
			c-17.37-11.13-33.2-24.15-47.17-39.3c-21.61-23.43-38.03-50.12-49.06-80.06c-8.14-22.1-12.77-44.89-14.55-68.42
			c-3.84-50.71,6.69-98.3,31.34-142.46C79.73,78.69,125.2,42.32,184.27,23.04c22.94-7.49,46.36-12.37,70.53-14.35
			c19.63-1.61,38.55,1.47,57.48,5.34c25.9,5.3,50.85,13.57,74.39,25.71c39.08,20.16,69.59,49.32,91.36,87.59
			c16.88,29.68,26.62,61.82,33.13,95.12c1.5,7.65,1.7,15.52,4.03,23.02c0,7.32,0,14.64,0,21.96c-2.1,6.04-1.96,12.46-2.93,18.68
			c-4.3,27.49-12.18,53.87-24.2,78.92c-17.21,35.86-41.05,66.5-72.96,90.54c-31.5,23.74-66.81,38.44-105.81,44.5
			c-6.22,0.97-12.63,0.84-18.67,2.94C274.99,503.01,259.35,503.01,243.71,503.01z M266.48,28.89c-9.99-0.51-21.4,0.61-32.8,1.98
			c-24.98,3-49.34,8.2-71.76,20.21c-13.09,7.01-25.39,15.23-37.04,24.46c-17.35,13.75-33.29,28.97-45.93,47.15
			c-24.36,35.05-37.92,74.33-41.6,116.64c-2.07,23.9-0.74,48.01,4.88,71.58c12.43,52.08,39.46,95.07,81.84,127.76
			c36.67,28.29,78.83,43.25,124.92,46.23c25.96,1.68,51.71-0.55,77.1-7.47c39.34-10.71,73.6-30.12,102.77-58.29
			c20.97-20.25,36.99-44.16,48.35-71.11c11.78-27.97,17.55-57.14,18.11-87.42c0.25-13.61-0.72-27.08-2.86-40.54
			c-4.81-30.24-15.11-58.43-31.05-84.52c-20.69-33.85-48.51-60.45-83.24-79.48C343.95,37.3,307.12,28.25,266.48,28.89z"/>
		<path class="st0" d="M290.62,503.01c6.04-2.1,12.45-1.97,18.67-2.94c38.99-6.07,74.3-20.76,105.81-44.5
			c31.9-24.04,55.75-54.68,72.96-90.54c12.02-25.06,19.91-51.43,24.2-78.92c0.97-6.22,0.83-12.64,2.93-18.68
			c0,78.53,0,157.06,0,235.58C440.34,503.01,365.48,503.01,290.62,503.01z"/>
		<path class="st0" d="M266.48,28.89c40.64-0.64,77.47,8.41,111.7,27.17c34.73,19.03,62.55,45.63,83.24,79.48
			c15.94,26.09,26.24,54.27,31.05,84.52c2.14,13.46,3.11,26.94,2.86,40.54c-0.55,30.28-6.32,59.46-18.11,87.42
			c-11.36,26.96-27.37,50.87-48.35,71.11c-29.17,28.17-63.43,47.58-102.77,58.29c-25.39,6.91-51.14,9.14-77.1,7.47
			c-46.08-2.98-88.24-17.94-124.92-46.23c-42.38-32.69-69.41-75.68-81.84-127.76c-5.63-23.57-6.96-47.68-4.88-71.58
			c3.67-42.3,17.24-81.59,41.6-116.64c12.64-18.19,28.58-33.41,45.93-47.15c11.65-9.23,23.95-17.45,37.04-24.46
			c22.42-12.01,46.78-17.21,71.76-20.21C245.09,29.5,256.5,28.38,266.48,28.89z M373.1,242.08c0.57,0.11,1.15,0.22,1.72,0.34
			c4.43-4.02,6.76-9.57,9.47-14.68c4.76-8.99,11.33-17.07,13.43-27.44c0.93-4.58-0.38-8.9-0.38-13.35
			c0.04-23.46,0.1-46.92-0.08-70.37c-0.11-13.82-7.72-22.16-21-24.95c-7.41-1.55-14.53,0.22-21.78,0.21
			c-58.22-0.06-116.43-0.03-174.65-0.04c-2,0-4.09,0.34-5.97-0.14c-6.99-1.8-13.89-0.47-20.74,0.54
			c-6.25,0.92-10.87,4.57-14.1,10.07c-3.42,5.83-4.04,12.16-4.03,18.74c0.04,79.19,0.02,158.38,0.02,237.57
			c0,8.32,0.57,16.69-0.24,24.94c-0.68,7.01-0.32,13.85,0.24,20.78c0.93,11.55,8.94,19.55,20.44,20.87
			c5.33,0.61,10.54,0.03,15.81,0.02c56.89-0.1,113.78-0.22,170.66,0.09c9.26,0.05,18.55,1.12,27.84,0.69
			c19.06-0.89,28.04-8.53,27.67-28.45c-0.4-21.12-0.06-42.25-0.13-63.38c-0.01-1.94,0.98-4.45-1.91-5.56
			c-2.41,0.98-3.32,3.21-4.42,5.18c-3.92,7.05-7.15,14.58-11.77,21.12c-5.86,8.29-7.19,17.17-6.7,26.85
			c0.32,6.41,0.06,12.84,0.06,19.21c-71.27,0-141.87,0-212.4,0c0-94.91,0-189.47,0-283.95c70.95,0,141.55,0,212.95,0
			C373.1,158.92,373.1,200.5,373.1,242.08z M331.78,358.34c-0.59,4.52,0.52,8.58,0.98,12.68c0.32,2.86,2.53,4.52,4.95,3.21
			c7.91-4.27,16.88-7.37,22.03-15.37c4.63-7.18,8.53-14.82,12.81-22.23c14.33-24.77,28.72-49.5,43.03-74.28
			c7.74-13.39,15.42-26.81,23.01-40.28c2.01-3.56,2.11-6.98-2.15-9.32c-4.18-2.29-8.24-4.82-12.47-7.01c-4.9-2.54-7.52-1.75-10.33,3
			c-4.86,8.21-9.61,16.49-14.43,24.72c-18.88,32.21-37.92,64.32-56.56,96.66C337.54,338.98,329.93,347.1,331.78,358.34z
			 M265.95,211.44c25.59,0,51.17,0.06,76.76-0.02c12.42-0.04,10.56,1.74,10.69-10.9c0.07-6.87,0.01-6.87-6.77-6.87
			c-52,0-104.01,0-156.01,0c-11.78,0-11.59,0-11.8,11.92c-0.08,4.53,1.21,6.01,5.88,5.98C211.79,211.34,238.87,211.44,265.95,211.44
			z M266.75,271.5c-25.42,0-50.84,0-76.26,0c-11.61,0-11.34,0.01-11.69,11.56c-0.16,5.21,1.62,6.36,6.55,6.34
			c52-0.17,104.01-0.1,156.01-0.1c12.16,0,11.94,0,12.17-12.06c0.09-4.75-1.58-5.86-6.04-5.83
			C320.58,271.59,293.66,271.5,266.75,271.5z M246.27,152.71c-18.77,0-37.54,0-56.3,0c-11.06,0-11.06,0-11.05,11.08
			c0.01,6.71,0.01,6.72,6.93,6.72c38.03,0,76.07,0,114.1,0c12.73,0,12.57,0,12.63-12.58c0.02-4.27-1.54-5.33-5.53-5.3
			C286.8,152.8,266.53,152.71,246.27,152.71z M245.33,248.38c18.44,0,36.87,0,55.31,0c11.92,0,11.7-0.01,11.97-11.76
			c0.11-4.87-1.47-6.16-6.22-6.14c-38.37,0.17-76.73,0.1-115.1,0.1c-12.48,0-12.3,0-12.46,12.26c-0.06,4.43,1.38,5.68,5.72,5.63
			C204.8,248.27,225.06,248.38,245.33,248.38z M245.75,327.24c18.44,0,36.87,0,55.31,0c11.49,0,11.28,0,11.54-11.68
			c0.11-4.76-1.28-6.25-6.14-6.22c-38.53,0.18-77.06,0.1-115.6,0.1c-12.05,0-11.88,0-12.03,12.18c-0.06,4.33,1.2,5.76,5.64,5.71
			C204.89,327.12,225.32,327.24,245.75,327.24z M231.01,366.1c0.09,9.57,7.21,16.73,16.7,16.79c9.35,0.06,16.6-7.27,16.63-16.81
			c0.03-9.44-7.28-16.48-16.98-16.35C237.79,349.86,230.92,356.73,231.01,366.1z M195.28,349.56c-9.95-0.09-16.22,6.15-16.25,16.14
			c-0.02,9.74,6.66,16.98,15.72,17.04c9.72,0.06,17.13-7.29,17.1-16.99C211.82,356.36,204.95,349.64,195.28,349.56z M435.24,179.47
			c-3.28-0.01-7.31,4.66-8.9,10.15c-0.84,2.92-0.25,5.44,2.29,7.01c4.76,2.95,9.62,5.76,14.6,8.33c2.26,1.17,5,1.43,6.84-0.97
			c5.87-7.67,8.78-14.32-1.99-18.42c-2.89-1.1-5.48-3.01-8.15-4.63C438.47,180.05,436.95,179.51,435.24,179.47z"/>
		<path class="st1" d="M373.1,242.08c0-41.58,0-83.16,0-125.11c-71.41,0-142,0-212.95,0c0,94.47,0,189.04,0,283.95
			c70.53,0,141.13,0,212.4,0c0-6.37,0.26-12.81-0.06-19.21c-0.49-9.68,0.85-18.57,6.7-26.85c4.63-6.54,7.85-14.08,11.77-21.12
			c1.1-1.98,2.01-4.2,4.42-5.18c2.88,1.11,1.9,3.62,1.91,5.56c0.07,21.13-0.27,42.26,0.13,63.38c0.38,19.92-8.61,27.57-27.67,28.45
			c-9.28,0.43-18.58-0.64-27.84-0.69c-56.89-0.31-113.77-0.19-170.66-0.09c-5.27,0.01-10.48,0.59-15.81-0.02
			c-11.5-1.32-19.51-9.32-20.44-20.87c-0.56-6.93-0.92-13.76-0.24-20.78c0.8-8.24,0.24-16.62,0.24-24.94
			c0-79.19,0.02-158.38-0.02-237.57c0-6.57,0.61-12.9,4.03-18.74c3.23-5.5,7.85-9.15,14.1-10.07c6.85-1,13.75-2.33,20.74-0.54
			c1.88,0.48,3.97,0.14,5.97,0.14c58.22,0,116.43-0.02,174.65,0.04c7.25,0.01,14.38-1.76,21.78-0.21c13.28,2.79,20.9,11.13,21,24.95
			c0.18,23.46,0.12,46.91,0.08,70.37c-0.01,4.45,1.3,8.77,0.38,13.35c-2.1,10.36-8.67,18.45-13.43,27.44
			c-2.71,5.12-5.04,10.67-9.47,14.68C374.25,242.31,373.68,242.2,373.1,242.08z"/>
		<path class="st1" d="M331.78,358.34c-1.85-11.24,5.76-19.36,10.86-28.21c18.64-32.34,37.68-64.46,56.56-96.66
			c4.83-8.23,9.57-16.51,14.43-24.72c2.81-4.75,5.44-5.54,10.33-3c4.23,2.2,8.29,4.72,12.47,7.01c4.26,2.33,4.15,5.75,2.15,9.32
			c-7.59,13.47-15.28,26.89-23.01,40.28c-14.31,24.78-28.7,49.51-43.03,74.28c-4.28,7.4-8.19,15.05-12.81,22.23
			c-5.16,8-14.12,11.09-22.03,15.37c-2.42,1.31-4.63-0.36-4.95-3.21C332.3,366.92,331.19,362.86,331.78,358.34z"/>
		<path class="st1" d="M265.95,211.44c-27.08,0-54.16-0.1-81.24,0.1c-4.68,0.04-5.96-1.45-5.88-5.98
			c0.21-11.92,0.02-11.92,11.8-11.92c52,0,104.01,0,156.01,0c6.78,0,6.84,0.01,6.77,6.87c-0.13,12.65,1.73,10.86-10.69,10.9
			C317.13,211.5,291.54,211.44,265.95,211.44z"/>
		<path class="st1" d="M266.75,271.5c26.92,0,53.83,0.09,80.75-0.09c4.45-0.03,6.13,1.07,6.04,5.83
			c-0.24,12.06-0.02,12.06-12.17,12.06c-52,0-104.01-0.06-156.01,0.1c-4.92,0.02-6.7-1.14-6.55-6.34
			c0.35-11.55,0.08-11.56,11.69-11.56C215.91,271.5,241.33,271.5,266.75,271.5z"/>
		<path class="st1" d="M246.27,152.71c20.26,0,40.53,0.08,60.79-0.07c4-0.03,5.55,1.03,5.53,5.3c-0.07,12.58,0.1,12.58-12.63,12.58
			c-38.03,0-76.07,0-114.1,0c-6.92,0-6.92-0.01-6.93-6.72c-0.02-11.08-0.02-11.08,11.05-11.08
			C208.73,152.71,227.5,152.71,246.27,152.71z"/>
		<path class="st1" d="M245.33,248.38c-20.26,0-40.53-0.11-60.79,0.09c-4.34,0.04-5.78-1.2-5.72-5.63
			c0.16-12.25-0.02-12.26,12.46-12.26c38.37,0,76.73,0.08,115.1-0.1c4.75-0.02,6.34,1.28,6.22,6.14
			c-0.28,11.75-0.05,11.76-11.97,11.76C282.2,248.38,263.76,248.38,245.33,248.38z"/>
		<path class="st1" d="M245.75,327.24c-20.43,0-40.86-0.12-61.29,0.09c-4.44,0.05-5.69-1.38-5.64-5.71
			c0.16-12.18-0.02-12.18,12.03-12.18c38.53,0,77.07,0.08,115.6-0.1c4.86-0.02,6.25,1.47,6.14,6.22
			c-0.26,11.68-0.05,11.68-11.54,11.68C282.62,327.24,264.19,327.24,245.75,327.24z"/>
		<path class="st1" d="M231.01,366.1c-0.09-9.37,6.77-16.25,16.35-16.37c9.7-0.13,17.01,6.91,16.98,16.35
			c-0.03,9.53-7.28,16.87-16.63,16.81C238.23,382.83,231.11,375.67,231.01,366.1z"/>
		<path class="st1" d="M195.28,349.56c9.67,0.08,16.54,6.8,16.57,16.19c0.03,9.69-7.38,17.05-17.1,16.99
			c-9.06-0.06-15.74-7.3-15.72-17.04C179.06,355.71,185.33,349.47,195.28,349.56z"/>
		<path class="st1" d="M435.24,179.46c1.7,0.05,3.22,0.58,4.69,1.47c2.67,1.63,5.26,3.53,8.15,4.63c10.77,4.1,7.86,10.75,1.99,18.42
			c-1.83,2.4-4.57,2.14-6.84,0.97c-4.98-2.57-9.84-5.38-14.6-8.33c-2.53-1.57-3.13-4.1-2.29-7.01
			C427.93,184.13,431.96,179.46,435.24,179.46z"/>
	</g>
</g>
<ellipse class="st2" cx="265.19" cy="256.53" rx="250" ry="246.48"/>
<path class="st3" d="M495.19,260.04c0-125.24-103.14-229.91-230.17-229.91S35.19,134.8,35.19,260.04s102.97,226.77,230,226.77
	S495.19,385.28,495.19,260.04z"/>
<rect x="172.09" y="93.57" class="st2" width="192.51" height="3.83"/>
</svg>
